<?xml version="1.0" encoding="UTF-8"?>
<!--Generator: Apple Native CoreSVG 326-->
<!DOCTYPE svg
PUBLIC "-//W3C//DTD SVG 1.1//EN"
       "http://www.w3.org/Graphics/SVG/1.1/DTD/svg11.dtd">
<svg version="1.1" xmlns="http://www.w3.org/2000/svg" xmlns:xlink="http://www.w3.org/1999/xlink" viewBox="0 0 35.2393 34.8804">
 <g>
  <rect height="34.8804" opacity="0" width="35.2393" x="0" y="0"/>
  <path d="M17.4316 34.8633C27.0532 34.8633 34.8633 27.0532 34.8633 17.4316C34.8633 7.81006 27.0532 0 17.4316 0C7.81006 0 0 7.81006 0 17.4316C0 27.0532 7.81006 34.8633 17.4316 34.8633ZM17.4316 31.958C9.39941 31.958 2.90527 25.4639 2.90527 17.4316C2.90527 9.39941 9.39941 2.90527 17.4316 2.90527C25.4639 2.90527 31.958 9.39941 31.958 17.4316C31.958 25.4639 25.4639 31.958 17.4316 31.958Z" fill="black" fill-opacity="0.85"/>
  <path d="M9.9292 18.6108C9.9292 19.0381 10.271 19.3457 10.7153 19.3457L16.5088 19.3457L13.4155 27.6514C13.0054 28.7451 14.1675 29.3433 14.8853 28.4546L24.2505 16.6968C24.4385 16.4917 24.541 16.2524 24.541 16.0303C24.541 15.603 24.1992 15.2954 23.7549 15.2954L17.9614 15.2954L21.0547 6.98975C21.4648 5.896 20.3027 5.29785 19.585 6.16943L10.2197 17.9272C10.0317 18.1494 9.9292 18.3887 9.9292 18.6108Z" fill="black" fill-opacity="0.85"/>
 </g>
</svg>
